<svg width="1921" height="1346">
  <g transform="matrix(1.690339,0,0,1.690339,-222.73747,-155.34499)">
    <path
       d="m 565.78673,428.39999 c 10.17334,0 15.4,6.06667 15.4,16.70667 v 2.05333 h -9.89333 v -2.8 c 0,-4.76 -1.86667,-6.53333 -5.22667,-6.53333 -3.36,0 -5.22666,1.77333 -5.22666,6.53333 0,13.62667 20.44,16.24001 20.44,35.18667 0,10.64 -5.32,16.70667 -15.58667,16.70667 -10.26667,0 -15.58667,-6.06667 -15.58667,-16.70667 V 475.44 h 9.89334 v 4.76 c 0,4.76 2.05333,6.44 5.41333,6.44 3.36,0 5.41333,-1.68 5.41333,-6.44 0,-13.62667 -20.44,-16.24 -20.44,-35.18667 0,-10.54667 5.22667,-16.61334 15.4,-16.61334 z"
       style="fill:#2f546d;stroke-width:0.933333" />
    <path
       d="m 586.32007,445.10666 c 0,-10.64 5.6,-16.70667 15.86667,-16.70667 10.26666,0 15.86666,6.06667 15.86666,16.70667 V 479.64 c 0,10.64 -5.6,16.70667 -15.86666,16.70667 -10.26667,0 -15.86667,-6.06667 -15.86667,-16.70667 z m 10.45333,35.28 c 0,4.76 2.05334,6.53334 5.41334,6.53334 3.36,0 5.41333,-1.77334 5.41333,-6.53334 v -35.93333 c 0,-4.76 -2.05333,-6.53334 -5.41333,-6.53334 -3.36,0 -5.41334,1.77334 -5.41334,6.53334 z"
       style="fill:#2f546d;stroke-width:0.933333" />
    <path
       d="m 635.22674,458.73333 h 13.44 v 9.52 h -13.44 V 495.6 H 624.7734 v -66.45334 h 27.62667 v 9.52 h -17.17333 z"
       style="fill:#2f546d;stroke-width:0.933333" />
    <path
       d="m 654.45341,429.14666 h 32.29333 v 9.52 h -10.92 V 495.6 h -10.45333 v -56.93334 h -10.92 z"
       style="fill:#2f546d;stroke-width:0.933333" />
    <path
       d="M 714.46674,460.22666 710.64008,495.6 h -14.37334 l -7.37333,-66.45334 h 10.17333 l 5.6,52.45334 5.04,-52.45334 h 10.08001 l 5.22666,52.82667 5.41334,-52.82667 h 9.14666 L 732.20008,495.6 h -13.90667 z"
       style="fill:#2f546d;stroke-width:0.933333" />
    <path
       d="m 777.09342,495.6 h -10.54667 l -1.77333,-12.04 h -12.78667 l -1.77334,12.04 h -9.61333 l 10.64,-66.45334 h 15.30667 z m -23.80001,-21 h 10.08001 l -5.04,-33.60001 z"
       style="fill:#2f546d;stroke-width:0.933333" />
    <path
       d="m 803.78675,495.6 c -0.56,-1.68 -0.93333,-2.8 -0.93333,-8.12 v -10.45334 c 0,-6.16 -2.05333,-8.49333 -6.81334,-8.49333 h -3.64 V 495.6 h -10.45333 v -66.45334 h 15.77334 c 10.82666,0 15.49333,5.04 15.49333,15.30667 v 5.22666 c 0,6.81334 -2.14667,11.29334 -6.81333,13.44001 5.22666,2.14666 6.90666,7.18666 6.90666,14.18666 v 10.26667 c 0,3.26667 0.0933,5.6 1.12,8.02667 z m -11.38667,-56.93334 v 20.44 h 4.10667 c 3.92,0 6.25334,-1.68 6.25334,-7 v -6.53333 c 0,-4.76 -1.58667,-6.81334 -5.32,-6.81334 h -5.04001 z"
       style="fill:#2f546d;stroke-width:0.933333" />
    <path
       d="m 830.57342,457.14666 h 14.37334 v 9.52 h -14.37334 v 19.50667 h 18.01334 V 495.6 h -28.46667 v -66.45334 h 28.46667 v 9.52 h -18.01334 z"
       style="fill:#2f546d;stroke-width:0.933333" />
    <path
       d="m 526.40006,541.33334 h 14.37334 v 9.52 h -14.37334 v 19.41333 h 18.01334 v 9.52 h -28.46667 v -66.45334 h 28.46667 v 9.52 h -18.01334 z"
       style="fill:#2f546d;stroke-width:0.933333" />
    <path
       d="m 560.28007,531.62667 v 48.16 h -9.42667 v -66.45334 h 13.06667 l 10.73333,39.76001 v -39.76001 h 9.33333 v 66.45334 H 573.2534 Z"
       style="fill:#2f546d;stroke-width:0.933333" />
    <path
       d="m 607.1334,542.73334 h 14.65334 v 21.09333 c 0,10.64 -5.32,16.70667 -15.58667,16.70667 -10.26667,0 -15.58667,-6.06667 -15.58667,-16.70667 v -34.53334 c 0,-10.64 5.32,-16.70666 15.58667,-16.70666 10.26667,0 15.58667,6.06666 15.58667,16.70666 v 6.44001 H 611.8934 V 528.64 c 0,-4.76 -2.05333,-6.53333 -5.41333,-6.53333 -3.36,0 -5.41333,1.77333 -5.41333,6.53333 v 35.93334 c 0,4.76 2.05333,6.44 5.41333,6.44 3.36,0 5.41333,-1.68 5.41333,-6.44 v -12.22667 h -4.76 z"
       style="fill:#2f546d;stroke-width:0.933333" />
    <path
       d="m 628.50674,513.33333 h 10.45333 v 66.45334 h -10.45333 z"
       style="fill:#2f546d;stroke-width:0.933333" />
    <path
       d="m 655.85341,531.62667 v 48.16 h -9.42667 v -66.45334 h 13.06667 l 10.73333,39.76001 v -39.76001 h 9.33334 v 66.45334 h -10.73334 z"
       style="fill:#2f546d;stroke-width:0.933333" />
    <path
       d="m 697.57341,541.33334 h 14.37333 v 9.52 h -14.37333 v 19.41333 h 18.01333 v 9.52 h -28.46666 v -66.45334 h 28.46666 v 9.52 h -18.01333 z"
       style="fill:#2f546d;stroke-width:0.933333" />
    <path
       d="m 732.48008,541.33334 h 14.37333 v 9.52 h -14.37333 v 19.41333 h 18.01333 v 9.52 h -28.46666 v -66.45334 h 28.46666 v 9.52 h -18.01333 z"
       style="fill:#2f546d;stroke-width:0.933333" />
    <path
       d="m 778.77342,579.78667 c -0.56,-1.68 -0.93334,-2.8 -0.93334,-8.12 v -10.45333 c 0,-6.16 -2.05333,-8.49334 -6.81333,-8.49334 h -3.64 v 27.06667 h -10.45333 v -66.45334 h 15.77333 c 10.82667,0 15.49333,5.04 15.49333,15.30667 v 5.22667 c 0,6.81333 -2.14666,11.29333 -6.81333,13.44 5.22667,2.14667 6.90667,7.18667 6.90667,14.18667 V 571.76 c 0,3.26667 0.0933,5.60001 1.12,8.02667 z M 767.38675,522.76 v 20.44 h 4.10667 c 3.92,0 6.25333,-1.68 6.25333,-7 v -6.53333 c 0,-4.76 -1.58667,-6.81334 -5.32,-6.81334 h -5.04 z"
       style="fill:#2f546d;stroke-width:0.933333" />
    <path
       d="m 795.10675,513.33333 h 10.45334 v 66.45334 h -10.45334 z"
       style="fill:#2f546d;stroke-width:0.933333" />
    <path
       d="m 822.45342,531.62667 v 48.16 h -9.42667 v -66.45334 h 13.06667 l 10.73333,39.76001 v -39.76001 h 9.33334 v 66.45334 h -10.73334 z"
       style="fill:#2f546d;stroke-width:0.933333" />
    <path
       d="m 869.40009,542.73334 h 14.65334 v 21.09333 c 0,10.64 -5.32,16.70667 -15.58667,16.70667 -10.26667,0 -15.58667,-6.06667 -15.58667,-16.70667 v -34.53334 c 0,-10.64 5.32,-16.70666 15.58667,-16.70666 10.26667,0 15.58667,6.06666 15.58667,16.70666 v 6.44001 h -9.89334 V 528.64 c 0,-4.76 -2.05333,-6.53333 -5.41333,-6.53333 -3.36,0 -5.41334,1.77333 -5.41334,6.53333 v 35.93334 c 0,4.76 2.05334,6.44 5.41334,6.44 3.36,0 5.41333,-1.68 5.41333,-6.44 v -12.22667 h -4.76 z"
       style="fill:#2f546d;stroke-width:0.933333" />
  </g>
  <g
     transform="matrix(1.690339,0,0,1.690339,-222.73747,-155.34499)">
    <path
       d="M 751.52008,238.09331 H 648.48007 c -11.85333,0 -21.46667,-9.61333 -21.46667,-21.46667 V 113.58663 c 0,-11.85333 9.61334,-21.466665 21.46667,-21.466665 h 103.04001 c 11.85334,0 21.46667,9.613335 21.46667,21.466665 v 103.04001 c 0,11.85334 -9.61333,21.46667 -21.46667,21.46667 z"
       style="fill:#40617c;stroke-width:0.933333" />
    <path
       d="m 676.20008,198.05331 -29.86667,-29.86667 c -1.68,-1.68 -1.68,-4.38667 0,-6.06667 l 29.86667,-29.86667 c 1.68,-1.68 4.38666,-1.68 6.06666,0 1.68,1.68 1.68,4.38667 0,6.06667 l -26.88,26.88 26.88,26.88 c 1.68,1.68 1.68,4.38667 0,6.06667 -1.68,1.58667 -4.38666,1.58667 -6.06666,-0.0933 z"
       style="fill:#ffffff;stroke-width:0.933333" />
    <path
       d="m 717.73341,198.05331 c -1.68,-1.68 -1.68,-4.38667 0,-6.06667 l 26.88,-26.88 -26.88,-26.88 c -1.68,-1.68 -1.68,-4.38667 0,-6.06667 1.68,-1.68 4.38667,-1.68 6.06667,0 l 29.86667,29.86667 c 1.68,1.68 1.68,4.38666 0,6.06666 l -29.86667,29.86667 c -1.68,1.77334 -4.38667,1.77334 -6.06667,0.0933 z"
       style="fill:#ffffff;stroke-width:0.933333" />
    <path
       d="m 693.74674,199.17331 c -2.33333,-0.46667 -3.92,-2.70667 -3.45333,-5.04 l 10.92,-59.82667 c 0.46667,-2.33334 2.70667,-3.92 5.04,-3.45334 2.33333,0.46667 3.92,2.70667 3.45333,5.04 l -10.92,59.82667 c -0.46666,2.33334 -2.70666,3.92 -5.04,3.45334 z"
       style="fill:#82a6bf;stroke-width:0.933333" />
    <path
       d="m 636.62674,252.65331 c 3.54667,0 5.04,2.05334 5.04,5.50667 v 2.70667 c 0,3.54666 -1.68,5.41333 -5.22667,5.41333 h -2.24 v 8.86667 h -2.52 v -22.4 h 4.94667 z m -0.28,11.29334 c 1.86667,0 2.70667,-0.84 2.70667,-2.98667 v -2.98667 c 0,-2.05333 -0.74667,-3.08 -2.52,-3.08 h -2.42667 v 9.05334 z"
       style="fill:#2f546d;stroke-width:0.933333" />
    <path
       d="m 648.66674,252.65331 c 3.54667,0 4.94667,1.77334 4.94667,5.13334 v 1.86666 c 0,2.42667 -0.84,4.01334 -2.8,4.57334 2.05333,0.65333 2.8,2.24 2.8,4.66666 v 3.45334 c 0,1.02666 0,1.96 0.46666,2.70666 h -2.52 c -0.28,-0.65333 -0.37333,-1.21333 -0.37333,-2.70666 v -3.54667 c 0,-2.52 -1.21333,-3.36 -3.26667,-3.36 h -1.77333 v 9.52 h -2.52 v -22.4 h 5.04 z m -0.65333,10.54667 c 1.96,0 3.17333,-0.65333 3.17333,-3.08 v -2.14667 c 0,-2.05333 -0.74667,-3.08 -2.61333,-3.08 h -2.42667 v 8.30667 z"
       style="fill:#2f546d;stroke-width:0.933333" />
    <path
       d="m 656.04007,258.06665 c 0,-3.45334 1.68,-5.6 5.13334,-5.6 3.45333,0 5.13333,2.24 5.13333,5.6 v 11.57333 c 0,3.36 -1.68,5.6 -5.13333,5.6 -3.45334,0 -5.13334,-2.24 -5.13334,-5.6 z m 2.52,11.76 c 0,2.05333 0.84,3.26666 2.61334,3.26666 1.86666,0 2.61333,-1.21333 2.61333,-3.26666 v -11.85334 c 0,-2.05333 -0.84,-3.26666 -2.61333,-3.26666 -1.77334,0 -2.61334,1.21333 -2.61334,3.26666 z"
       style="fill:#2f546d;stroke-width:0.933333" />
    <path
       d="m 678.53341,258.06665 v 1.96 h -2.33333 v -2.05334 c 0,-2.05333 -0.84001,-3.26666 -2.61334,-3.26666 -1.77333,0 -2.61333,1.21333 -2.61333,3.26666 v 11.85334 c 0,2.05333 0.84,3.26666 2.61333,3.26666 1.86667,0 2.61334,-1.21333 2.61334,-3.26666 v -4.48 h -2.33334 v -2.24 h 4.66667 v 6.62666 c 0,3.36 -1.58667,5.6 -5.04,5.6 -3.45334,0 -5.04,-2.24 -5.04,-5.6 v -11.57333 c 0,-3.36 1.58666,-5.6 5.04,-5.6 3.45333,-0.0933 5.04,2.14667 5.04,5.50667 z"
       style="fill:#2f546d;stroke-width:0.933333" />
    <path
       d="m 685.90674,252.65331 c 3.54667,0 4.94667,1.77334 4.94667,5.13334 v 1.86666 c 0,2.42667 -0.84,4.01334 -2.8,4.57334 2.05333,0.65333 2.8,2.24 2.8,4.66666 v 3.45334 c 0,1.02666 0,1.96 0.46667,2.70666 h -2.52 c -0.28,-0.65333 -0.37334,-1.21333 -0.37334,-2.70666 v -3.54667 c 0,-2.52 -1.21333,-3.36 -3.26666,-3.36 h -1.77334 v 9.52 h -2.52 v -22.4 h 5.04 z m -0.65333,10.54667 c 1.96,0 3.17333,-0.65333 3.17333,-3.08 v -2.14667 c 0,-2.05333 -0.74666,-3.08 -2.61333,-3.08 h -2.42667 v 8.30667 z"
       style="fill:#2f546d;stroke-width:0.933333" />
    <path
       d="m 696.08008,270.57331 -0.84,4.48 h -2.33334 l 4.29334,-22.4 h 3.64 l 4.29333,22.4 h -2.52 l -0.84,-4.48 z m 0.28,-2.14666 h 4.94666 l -2.52,-12.88 z"
       style="fill:#2f546d;stroke-width:0.933333" />
    <path
       d="m 715.30674,275.05331 h -2.42666 l -3.73334,-17.82666 v 17.82666 h -2.14666 v -22.4 h 3.45333 l 3.64,17.92 3.54667,-17.92 h 3.45333 v 22.4 h -2.33333 v -18.01333 z"
       style="fill:#2f546d;stroke-width:0.933333" />
    <path
       d="m 732.01341,275.05331 h -2.42666 l -3.73334,-17.82666 v 17.82666 h -2.14666 v -22.4 h 3.45333 l 3.64,17.92 3.54667,-17.92 h 3.45333 v 22.4 h -2.33333 v -18.01333 z"
       style="fill:#2f546d;stroke-width:0.933333" />
    <path
       d="m 743.02675,252.65331 v 22.4 h -2.52 v -22.4 z"
       style="fill:#2f546d;stroke-width:0.933333" />
    <path
       d="m 747.78675,275.05331 h -2.24 v -22.4 h 3.17333 l 5.13333,16.14667 v -16.14667 h 2.24 v 22.4 h -2.61333 l -5.69333,-18.10666 z"
       style="fill:#2f546d;stroke-width:0.933333" />
    <path
       d="m 768.50675,258.06665 v 1.96 h -2.33333 v -2.05334 c 0,-2.05333 -0.84,-3.26666 -2.61334,-3.26666 -1.77333,0 -2.61333,1.21333 -2.61333,3.26666 v 11.85334 c 0,2.05333 0.84,3.26666 2.61333,3.26666 1.86667,0 2.61334,-1.21333 2.61334,-3.26666 v -4.48 h -2.33334 v -2.24 h 4.66667 v 6.62666 c 0,3.36 -1.58667,5.6 -5.04,5.6 -3.45333,0 -5.04,-2.24 -5.04,-5.6 v -11.57333 c 0,-3.36 1.58667,-5.6 5.04,-5.6 3.45333,-0.0933 5.04,2.14667 5.04,5.50667 z"
       style="fill:#2f546d;stroke-width:0.933333" />
    <path
       d="m 711.38674,296.42666 a 11.386668,11.386668 0 0 1 -11.38666,11.38667 11.386668,11.386668 0 0 1 -11.38667,-11.38667 11.386668,11.386668 0 0 1 11.38667,-11.38667 11.386668,11.386668 0 0 1 11.38666,11.38667 z"
       style="fill:#a8cde2;stroke-width:0.933333" />
    <path
       d="m 700.00008,404.59999 c -1.58667,0 -2.89334,-1.30667 -2.89334,-2.89333 V 296.42665 c 0,-1.58667 1.30667,-2.89333 2.89334,-2.89333 1.58666,0 2.89333,1.30666 2.89333,2.89333 v 105.28001 c 0,1.58666 -1.30667,2.89333 -2.89333,2.89333 z"
       style="fill:#a8cde2;stroke-width:0.933333" />
  </g>
  <g
     transform="matrix(1.690339,0,0,1.690339,-222.73747,-155.34499)">
    <path
       d="m 414.40005,137.38664 c -40.32,0 -72.98667,32.66667 -72.98667,72.98667 0,40.32 32.66667,72.98667 72.98667,72.98667 40.32001,0 72.98668,-32.66667 72.98668,-72.98667 0,-40.32 -32.66667,-72.98667 -72.98668,-72.98667 z m 0,135.98667 c -35.56,0 -64.4,-28.84 -64.4,-64.4 0,-35.56 28.84,-64.40001 64.4,-64.40001 35.56001,0 64.40001,28.84001 64.40001,64.40001 0,35.56 -28.84,64.4 -64.40001,64.4 z"
       style="fill:#40617c;stroke-width:0.933333" />
    <path
       d="m 482.34673,210.3733 a 67.946675,67.946675 0 0 1 -67.94668,67.94668 67.946675,67.946675 0 0 1 -67.94667,-67.94668 67.946675,67.946675 0 0 1 67.94667,-67.94667 67.946675,67.946675 0 0 1 67.94668,67.94667 z"
       style="fill:#82a6bf;stroke-width:0.933333" />
    <path
       d="m 471.42672,210.3733 a 57.026669,57.026669 0 0 1 -57.02667,57.02667 57.026669,57.026669 0 0 1 -57.02667,-57.02667 57.026669,57.026669 0 0 1 57.02667,-57.02667 57.026669,57.026669 0 0 1 57.02667,57.02667 z"
       style="fill:#40617c;stroke-width:0.933333" />
    <path
       d="m 396.01339,245.46664 c -2.33334,0 -4.57334,-0.84 -6.34667,-2.61333 l -15.58667,-15.58667 c -3.45333,-3.45333 -3.45333,-9.14666 0,-12.69333 3.45333,-3.45333 9.14667,-3.45333 12.69333,0 l 9.24001,9.24 46.01333,-46.01334 c 3.45334,-3.45333 9.14667,-3.45333 12.69334,0 3.45333,3.45334 3.45333,9.14667 0,12.69334 l -52.26667,52.26667 c -1.86667,1.86666 -4.10667,2.70666 -6.44,2.70666 z"
       style="fill:#ffffff;stroke-width:0.933333" />
    <path
       d="m 340.38671,297.82665 3.64,19.50667 3.64,-19.50667 h 2.33334 l -4.2,22.4 h -3.64 l -4.2,-22.4 z"
       style="fill:#2f546d;stroke-width:0.933333" />
    <path
       d="m 353.54672,315.74665 -0.84,4.48 h -2.33334 l 4.29334,-22.4 h 3.64 l 4.29333,22.4 h -2.52 l -0.84,-4.48 z m 0.37333,-2.14667 h 4.94667 l -2.52,-12.88 z"
       style="fill:#2f546d;stroke-width:0.933333" />
    <path
       d="m 364.56005,320.22665 v -22.4 h 2.52 v 20.06667 h 6.44 v 2.24 h -8.96 z"
       style="fill:#2f546d;stroke-width:0.933333" />
    <path
       d="m 377.81338,297.82665 v 22.4 h -2.52 v -22.4 z"
       style="fill:#2f546d;stroke-width:0.933333" />
    <path
       d="m 385.56005,297.82665 c 3.45333,0 5.04,2.14667 5.04,5.6 v 11.29333 c 0,3.45334 -1.58667,5.50667 -5.04,5.50667 h -5.22667 v -22.4 z m 0,20.16 c 1.77333,0 2.61333,-1.12 2.61333,-3.17333 v -11.48 c 0,-2.05334 -0.84,-3.17334 -2.70666,-3.17334 h -2.70667 v 17.82667 z"
       style="fill:#2f546d;stroke-width:0.933333" />
    <path
       d="m 395.54672,315.74665 -0.84,4.48 h -2.33333 l 4.29333,-22.4 h 3.64 l 4.29333,22.4 h -2.52 l -0.84,-4.48 z m 0.28,-2.14667 h 4.94667 l -2.52,-12.88 z"
       style="fill:#2f546d;stroke-width:0.933333" />
    <path
       d="m 409.73339,320.22665 v -20.06667 h -4.10667 v -2.24 h 10.73333 v 2.24 h -4.10666 v 20.06667 z"
       style="fill:#2f546d;stroke-width:0.933333" />
    <path
       d="m 420.56005,297.82665 v 22.4 h -2.42666 v -22.4 z"
       style="fill:#2f546d;stroke-width:0.933333" />
    <path
       d="m 422.98672,303.23998 c 0,-3.45333 1.68,-5.6 5.13333,-5.6 3.45334,0 5.13334,2.24 5.13334,5.6 v 11.57334 c 0,3.36 -1.68,5.6 -5.13334,5.6 -3.45333,0 -5.13333,-2.24 -5.13333,-5.6 z m 2.42667,11.76 c 0,2.05334 0.84,3.26667 2.61333,3.26667 1.86667,0 2.61333,-1.21333 2.61333,-3.26667 v -11.85333 c 0,-2.05333 -0.84,-3.26667 -2.61333,-3.26667 -1.77333,0 -2.61333,1.21334 -2.61333,3.26667 z"
       style="fill:#2f546d;stroke-width:0.933333" />
    <path
       d="m 437.82672,320.22665 h -2.24 v -22.4 h 3.17334 l 5.22666,16.14667 v -16.14667 h 2.24 v 22.4 h -2.61333 l -5.69333,-18.10667 v 18.10667 z"
       style="fill:#2f546d;stroke-width:0.933333" />
    <path
       d="m 456.12006,315.74665 -0.84,4.48 h -2.33334 l 4.29334,-22.4 h 3.64 l 4.29333,22.4 h -2.52 l -0.84,-4.48 z m 0.37333,-2.14667 h 4.94667 l -2.52,-12.88 z"
       style="fill:#2f546d;stroke-width:0.933333" />
    <path
       d="m 469.37339,320.22665 h -2.24 v -22.4 h 3.17333 l 5.22667,16.14667 v -16.14667 h 2.24 v 22.4 h -2.70666 l -5.69334,-18.10667 z"
       style="fill:#2f546d;stroke-width:0.933333" />
    <path
       d="m 485.42673,297.82665 c 3.45333,0 5.04,2.14667 5.04,5.6 v 11.29333 c 0,3.45334 -1.58667,5.50667 -5.04,5.50667 h -5.22667 v -22.4 z m 0,20.16 c 1.77333,0 2.61333,-1.12 2.61333,-3.17333 v -11.48 c 0,-2.05334 -0.84,-3.17334 -2.70667,-3.17334 h -2.70666 v 17.82667 z"
       style="fill:#2f546d;stroke-width:0.933333" />
    <path
       d="m 354.38672,328.25332 3.64,19.50667 3.64,-19.50667 h 2.33333 l -4.2,22.4 h -3.64 l -4.2,-22.4 z"
       style="fill:#2f546d;stroke-width:0.933333" />
    <path
       d="m 373.89338,338.14665 v 2.24 h -5.50666 v 7.93334 h 6.72 v 2.24 h -9.24 v -22.40001 h 9.24 v 2.24 h -6.72 v 7.65334 h 5.50666 z"
       style="fill:#2f546d;stroke-width:0.933333" />
    <path
       d="m 382.38672,328.25332 c 3.54666,0 4.94666,1.77333 4.94666,5.13333 v 1.86667 c 0,2.42667 -0.84,4.01333 -2.8,4.57333 2.05334,0.65334 2.8,2.24 2.8,4.66667 v 3.45333 c 0,1.02667 0,1.96 0.46667,2.70667 h -2.52 c -0.28,-0.65333 -0.37333,-1.21333 -0.37333,-2.70667 v -3.54666 c 0,-2.52 -1.21334,-3.36 -3.26667,-3.36 h -1.77333 v 9.52 h -2.52 v -22.40001 h 5.04 z m -0.65334,10.54667 c 1.96,0 3.17334,-0.65334 3.17334,-3.08 v -2.14667 c 0,-2.05334 -0.74667,-3.08 -2.61334,-3.08 h -2.42666 v 8.30667 z"
       style="fill:#2f546d;stroke-width:0.933333" />
    <path
       d="m 392.46672,328.25332 v 22.4 h -2.52 v -22.4 z"
       style="fill:#2f546d;stroke-width:0.933333" />
    <path
       d="m 402.73339,338.70665 v 2.24 h -5.13334 v 9.70667 h -2.52 v -22.4 h 8.86667 v 2.24 h -6.44 v 8.12 h 5.22667 z"
       style="fill:#2f546d;stroke-width:0.933333" />
    <path
       d="m 408.42672,328.25332 v 22.4 h -2.52 v -22.4 z"
       style="fill:#2f546d;stroke-width:0.933333" />
    <path
       d="m 420.84005,333.66665 v 2.05334 h -2.33333 v -2.14667 c 0,-2.05334 -0.84,-3.26667 -2.61333,-3.26667 -1.77334,0 -2.61334,1.21333 -2.61334,3.26667 v 11.76 c 0,2.05333 0.84,3.26667 2.61334,3.26667 1.86666,0 2.61333,-1.21334 2.61333,-3.26667 v -2.89333 h 2.33333 v 2.8 c 0,3.36 -1.58666,5.6 -5.04,5.6 -3.45333,0 -5.04,-2.24 -5.04,-5.6 v -11.57334 c 0,-3.36 1.58667,-5.6 5.04,-5.6 3.45334,0 5.04,2.24 5.04,5.6 z"
       style="fill:#2f546d;stroke-width:0.933333" />
    <path
       d="m 425.69339,346.07999 -0.84,4.48 h -2.33334 l 4.29334,-22.40001 h 3.64 l 4.29333,22.40001 h -2.52 l -0.84,-4.48 z m 0.28,-2.05334 h 4.94666 l -2.52,-12.88 z"
       style="fill:#2f546d;stroke-width:0.933333" />
    <path
       d="m 439.88006,350.65332 v -20.06667 h -4.10667 v -2.24 h 10.73333 v 2.24 h -4.10666 v 20.06667 z"
       style="fill:#2f546d;stroke-width:0.933333" />
    <path
       d="m 450.70672,328.25332 v 22.4 h -2.52 v -22.4 z"
       style="fill:#2f546d;stroke-width:0.933333" />
    <path
       d="m 453.13339,333.66665 c 0,-3.45333 1.68,-5.6 5.13333,-5.6 3.45334,0 5.13334,2.24 5.13334,5.6 v 11.57334 c 0,3.36 -1.68,5.6 -5.13334,5.6 -3.45333,0 -5.13333,-2.24 -5.13333,-5.6 z m 2.42667,11.66667 c 0,2.05333 0.84,3.26667 2.61333,3.26667 1.86667,0 2.61333,-1.21334 2.61333,-3.26667 v -11.85333 c 0,-2.05334 -0.84,-3.26667 -2.61333,-3.26667 -1.77333,0 -2.61333,1.21333 -2.61333,3.26667 z"
       style="fill:#2f546d;stroke-width:0.933333" />
    <path
       d="m 467.97339,350.65332 h -2.24 v -22.4 h 3.17333 l 5.22667,16.14667 v -16.14667 h 2.24 v 22.4 h -2.61333 l -5.69334,-18.10667 v 18.10667 z"
       style="fill:#2f546d;stroke-width:0.933333" />
    <path
       style="fill:#a8cde2;stroke-width:0.933333"
       d="m 425.60005,372.21331 a 11.386668,11.386668 0 0 1 -11.38667,11.38667 11.386668,11.386668 0 0 1 -11.38667,-11.38667 11.386668,11.386668 0 0 1 11.38667,-11.38667 11.386668,11.386668 0 0 1 11.38667,11.38667 z" />
    <path
       d="M 516.04006,451.82666 H 414.21339 c -1.58667,0 -2.89334,-1.30667 -2.89334,-2.89333 v -76.62668 c 0,-1.58666 1.30667,-2.89333 2.89334,-2.89333 1.58666,0 2.89333,1.30667 2.89333,2.89333 v 73.73334 h 98.93334 c 1.58667,0 2.89334,1.30667 2.89334,2.89334 0,1.58666 -1.30667,2.89333 -2.89334,2.89333 z"
       style="fill:#a8cde2;stroke-width:0.933333" />
  </g>
  <g
     transform="matrix(1.690339,0,0,1.690339,-222.73747,-155.34499)">
    <path
       d="m 256.57337,543.10667 h -103.04 c -11.85334,0 -21.46667,-9.61334 -21.46667,-21.46667 V 418.50666 c 0,-11.85334 9.61333,-21.46667 21.46667,-21.46667 h 103.04 c 11.85334,0 21.46667,9.61333 21.46667,21.46667 v 103.04001 c 0,11.94666 -9.61333,21.56 -21.46667,21.56 z"
       style="fill:#40617c;stroke-width:0.933333" />
    <path
       style="fill:#82a6bf;stroke-width:0.933333"
       d="m 154.93337,452.66666 c 1.02666,1.02667 2.42666,1.58667 3.82666,1.58667 1.4,0 2.70667,-0.56 3.82667,-1.58667 l 7.74667,-7.74667 7.74666,7.74667 c 1.02667,1.02667 2.42667,1.58667 3.82667,1.58667 1.4,0 2.70667,-0.56 3.82667,-1.58667 2.05333,-2.05333 2.05333,-5.50667 0,-7.56 l -7.74667,-7.74667 7.74667,-7.74666 c 2.05333,-2.05334 2.05333,-5.50667 0,-7.56 -2.05334,-2.05334 -5.50667,-2.05334 -7.56,0 l -7.74667,7.74666 -7.74667,-7.74666 c -2.05333,-2.05334 -5.50666,-2.05334 -7.56,0 -2.05333,2.05333 -2.05333,5.50666 0,7.56 l 7.74667,7.74666 -7.74667,7.74667 c -2.24,2.05333 -2.24,5.50667 -0.18666,7.56 z" />
    <path
       d="m 245.37337,504.93333 7.74667,-7.74666 c 2.05333,-2.05334 2.05333,-5.50667 0,-7.56001 -2.05333,-2.05333 -5.50667,-2.05333 -7.56,0 l -7.74667,7.74667 -7.74666,-7.74667 c -2.05334,-2.05333 -5.50667,-2.05333 -7.56001,0 -2.05333,2.05334 -2.05333,5.50667 0,7.56001 l 7.74667,7.74666 -7.74667,7.74667 c -2.05333,2.05333 -2.05333,5.50667 0,7.56 1.02667,1.02667 2.42667,1.58667 3.82667,1.58667 1.4,0 2.70667,-0.56 3.82667,-1.58667 l 7.74667,-7.74667 7.74666,7.74667 c 1.02667,1.02667 2.42667,1.58667 3.82667,1.58667 1.4,0 2.70667,-0.56 3.82667,-1.58667 2.05333,-2.05333 2.05333,-5.50667 0,-7.56 z"
       style="fill:#82a6bf;stroke-width:0.933333" />
    <path
       d="m 237.81337,454.25333 c 9.33334,0 16.89334,-7.56 16.89334,-16.89334 0,-9.33333 -7.56,-16.89333 -16.89334,-16.89333 -9.33333,0 -16.89333,7.56 -16.89333,16.89333 0,9.33334 7.56,16.89334 16.89333,16.89334 z m 0,-23.05334 c 3.36,0 6.16,2.8 6.16,6.16 0,3.36 -2.8,6.16 -6.16,6.16 -3.36,0 -6.16,-2.8 -6.16,-6.16 0,-3.36 2.70667,-6.16 6.16,-6.16 z"
       style="fill:#ffffff;stroke-width:0.933333" />
    <path
       d="m 214.48004,465.45333 c 0,-0.0933 0,-0.18667 0,-0.18667 0,-0.0933 0,-0.18666 0,-0.28 0,-0.0933 0,-0.18666 -0.0933,-0.28 0,-0.0933 0,-0.18666 -0.0933,-0.28 0,-0.0933 -0.0933,-0.18666 -0.0933,-0.28 0,-0.0933 -0.0933,-0.18666 -0.0933,-0.28 0,-0.0933 -0.0933,-0.18666 -0.0933,-0.18666 0,-0.0933 -0.0933,-0.18667 -0.0933,-0.28 0,-0.0933 -0.0933,-0.18667 -0.0933,-0.18667 -0.0933,-0.0933 -0.0933,-0.18667 -0.18666,-0.28 -0.0933,-0.0933 -0.0933,-0.18667 -0.18667,-0.18667 -0.0933,-0.0933 -0.0933,-0.0933 -0.18667,-0.18666 -0.0933,-0.0933 -0.18666,-0.28 -0.37333,-0.37334 0,0 0,0 0,0 0,0 0,0 0,0 -0.0933,-0.0933 -0.28,-0.18666 -0.37333,-0.37333 -0.0933,-0.0933 -0.0933,-0.0933 -0.18667,-0.18667 -0.0933,-0.0933 -0.18667,-0.0933 -0.18667,-0.18666 -0.0933,-0.0933 -0.18666,-0.0933 -0.18666,-0.0933 -0.0933,0 -0.18667,-0.0933 -0.18667,-0.0933 -0.0933,0 -0.18667,-0.0933 -0.18667,-0.0933 -0.0933,0 -0.18666,-0.0933 -0.28,-0.0933 -0.0933,0 -0.18666,-0.0933 -0.18666,-0.0933 -0.0933,0 -0.18667,-0.0933 -0.28,-0.0933 -0.0933,0 -0.18667,0 -0.18667,-0.0933 -0.0933,0 -0.18667,-0.0933 -0.28,-0.0933 -0.0933,0 -0.18667,0 -0.28,0 -0.0933,0 -0.18667,0 -0.28,0 -0.0933,0 -0.28,0 -0.37333,0 0,0 -0.0933,0 -0.0933,0 h -22.77333 c -2.98667,0 -5.41334,2.42667 -5.41334,5.41333 0,2.98667 2.42667,5.41334 5.41334,5.41334 h 9.8 l -41.44,41.06667 c -2.05334,2.05333 -2.05334,5.50666 0,7.56 1.02666,1.02666 2.42666,1.58666 3.82666,1.58666 1.4,0 2.70667,-0.56 3.82667,-1.58666 l 41.25334,-41.25334 v 9.8 c 0,2.98667 2.42666,5.41334 5.41333,5.41334 2.98667,0 5.41333,-2.42667 5.41333,-5.41334 V 465.92 c -0.18666,-0.0933 -0.18666,-0.28 -0.18666,-0.46667 z"
       style="fill:#ffffff;stroke-width:0.933333" />
    <path
       d="m 164.8267,557.10667 c 3.54667,0 5.04,2.05333 5.04,5.50667 V 565.32 c 0,3.54667 -1.68,5.41334 -5.22667,5.41334 h -2.24 v 8.86667 h -2.52 V 557.2 h 4.94667 z M 164.64003,568.4 c 1.86667,0 2.70667,-0.84 2.70667,-2.98666 v -2.98667 c 0,-2.05333 -0.74667,-3.08 -2.52,-3.08 h -2.42667 V 568.4 Z"
       style="fill:#2f546d;stroke-width:0.933333" />
    <path
       d="m 171.92003,579.50667 v -22.4 h 2.52 v 20.06667 h 6.44 v 2.24 h -8.96 z"
       style="fill:#2f546d;stroke-width:0.933333" />
    <path
       d="m 185.2667,575.02667 -0.84,4.48 h -2.33333 l 4.29333,-22.4 h 3.64 l 4.29334,22.4 h -2.52 l -0.84,-4.48 z m 0.28,-2.14667 h 4.94667 l -2.52,-12.88 z"
       style="fill:#2f546d;stroke-width:0.933333" />
    <path
       d="m 198.4267,579.50667 h -2.24 v -22.4 h 3.17334 l 5.22666,16.14667 v -16.14667 h 2.24 v 22.4 h -2.61333 L 198.52004,561.4 v 18.10667 z"
       style="fill:#2f546d;stroke-width:0.933333" />
    <path
       d="m 211.49337,579.50667 h -2.24 v -22.4 h 3.17333 l 5.22667,16.14667 v -16.14667 h 2.24 v 22.4 h -2.61333 L 211.5867,561.4 v 18.10667 z"
       style="fill:#2f546d;stroke-width:0.933333" />
    <path
       d="m 224.84004,557.10667 v 22.4 h -2.52 v -22.4 z"
       style="fill:#2f546d;stroke-width:0.933333" />
    <path
       d="m 229.60004,579.50667 h -2.24 v -22.4 h 3.17333 l 5.22667,16.14667 v -16.14667 h 2.24 v 22.4 h -2.61333 L 229.69337,561.4 v 18.10667 z"
       style="fill:#2f546d;stroke-width:0.933333" />
    <path
       d="m 250.41337,562.52 v 1.96 h -2.33333 v -2.05333 c 0,-2.05333 -0.84,-3.26667 -2.61333,-3.26667 -1.77334,0 -2.61334,1.21334 -2.61334,3.26667 V 574.28 c 0,2.05334 0.84,3.26667 2.61334,3.26667 1.86666,0 2.61333,-1.21333 2.61333,-3.26667 v -4.48 h -2.33333 v -2.33333 h 4.66666 v 6.62667 c 0,3.36 -1.58666,5.6 -5.04,5.6 -3.45333,0 -5.04,-2.24 -5.04,-5.6 V 562.52 c 0,-3.36 1.58667,-5.6 5.04,-5.6 3.36,0 5.04,2.24 5.04,5.6 z"
       style="fill:#2f546d;stroke-width:0.933333" />
    <path
       d="M 216.44004,600.88 A 11.386668,11.386668 0 0 1 205.05337,612.26667 11.386668,11.386668 0 0 1 193.6667,600.88 11.386668,11.386668 0 0 1 205.05337,589.49333 11.386668,11.386668 0 0 1 216.44004,600.88 Z"
       style="fill:#a8cde2;stroke-width:0.933333" />
    <path
       d="M 480.20006,603.77334 H 205.05337 c -1.58667,0 -2.89333,-1.30667 -2.89333,-2.89333 0,-1.58667 1.30666,-2.89334 2.89333,-2.89334 h 275.14669 c 1.58667,0 2.89333,1.30667 2.89333,2.89334 0,1.58666 -1.30666,2.89333 -2.89333,2.89333 z"
       style="fill:#a8cde2;stroke-width:0.933333" />
  </g>
  <g
     transform="matrix(1.690339,0,0,1.690339,-222.73747,-155.34499)">
    <path
       d="m 429.05339,672.56001 c -0.46667,-3.45333 -3.73334,-5.88 -7.18667,-5.32 v 0 c -2.52,0.46667 -5.13333,-0.74666 -6.44,-3.08 l -3.45333,-6.06666 c -1.30667,-2.24001 -1.02667,-5.04001 0.56,-7.09334 2.24,-2.70667 1.77333,-6.72 -0.93334,-8.86667 -3.45333,-2.70666 -7.18666,-4.85333 -11.29333,-6.53333 -3.26667,-1.30667 -7,0.28 -8.21333,3.54667 v 0 c -0.93334,2.42666 -3.26667,4.01333 -5.88001,4.01333 h -7 c -2.61333,0 -4.94666,-1.58667 -5.88,-4.01333 v 0 c -1.21333,-3.26667 -4.94666,-4.94667 -8.21333,-3.54667 -4.10667,1.68 -7.84,3.82667 -11.29333,6.53333 -2.8,2.14667 -3.17334,6.16 -0.93334,8.86667 1.68,2.05333 1.86667,4.85333 0.56,7.09334 l -3.45333,6.06666 c -1.30667,2.24 -3.82667,3.45334 -6.44,3.08 v 0 c -3.45334,-0.56 -6.72,1.77334 -7.18667,5.32 -0.28,2.14667 -0.46667,4.29334 -0.46667,6.53334 0,2.24 0.18667,4.38666 0.46667,6.53333 0.46667,3.45333 3.73333,5.88 7.18667,5.32 v 0 c 2.52,-0.46667 5.13333,0.74667 6.44,3.08 l 3.45333,6.06667 c 1.30667,2.24 1.02667,5.04 -0.56,7.09333 v 0 c -2.24,2.70667 -1.77333,6.72 0.93334,8.86667 3.45333,2.70667 7.18666,4.85333 11.29333,6.53333 3.26667,1.30667 7,-0.28 8.21333,-3.54666 v 0 c 0.93334,-2.42667 3.26667,-4.01334 5.88,-4.01334 h 7 c 2.61334,0 4.94667,1.58667 5.88001,4.01334 v 0 c 1.21333,3.26666 4.94666,4.94666 8.21333,3.54666 4.10667,-1.68 7.84,-3.82666 11.29333,-6.53333 2.8,-2.14667 3.17334,-6.16 0.93334,-8.86667 -1.68,-2.05333 -1.86667,-4.85333 -0.56,-7.09333 l 3.45333,-6.06667 c 1.30667,-2.24 3.82667,-3.45333 6.44,-3.08 v 0 c 3.45333,0.56 6.72,-1.77333 7.18667,-5.32 0.28,-2.14667 0.46666,-4.29333 0.46666,-6.53333 0,-2.14667 -0.18666,-4.38667 -0.46666,-6.53334 z m -46.38667,31.92001 c -14,0 -25.29334,-11.29334 -25.29334,-25.29334 0,-14 11.29334,-25.29334 25.29334,-25.29334 14,0 25.29333,11.29334 25.29333,25.29334 0,13.90667 -11.29333,25.29334 -25.29333,25.29334 z"
       style="fill:#40617c;stroke-width:0.933333" />
    <path
       d="m 390.67573,671.18966 a 11.293226,11.293226 0 0 1 0,15.97103 11.293226,11.293226 0 0 1 -15.97103,0 11.293226,11.293226 0 0 1 0,-15.97103 11.293226,11.293226 0 0 1 15.97103,0 z"
       style="fill:#82a6bf;stroke-width:0.933324" />
    <path
       d="m 426.72005,780.92002 c 2.42667,-0.37333 4.01334,-2.61333 3.64,-4.94667 v 0 c -0.28,-1.77333 0.56,-3.54666 2.14667,-4.48 l 4.2,-2.42666 c 1.58667,-0.93334 3.54667,-0.74667 4.85334,0.37333 1.86666,1.49333 4.66666,1.21333 6.16,-0.65333 1.86666,-2.33334 3.36,-4.94667 4.48,-7.84 0.93333,-2.24 -0.18667,-4.85334 -2.52,-5.69334 v 0 c -1.68,-0.65333 -2.8,-2.24 -2.8,-4.01333 v -4.85333 c 0,-1.77334 1.12,-3.45334 2.8,-4.01334 v 0 c 2.24,-0.84 3.36,-3.45333 2.52,-5.69333 -1.12,-2.8 -2.70667,-5.41334 -4.48,-7.84 -1.49334,-1.86667 -4.29334,-2.24 -6.16,-0.65334 -1.4,1.12 -3.36,1.30667 -4.85334,0.37334 l -4.2,-2.42667 c -1.58667,-0.93333 -2.42667,-2.70667 -2.14667,-4.48 v 0 c 0.37334,-2.42667 -1.21333,-4.66667 -3.64,-4.94667 -1.49333,-0.18666 -2.98666,-0.28 -4.48,-0.28 -1.49333,0 -3.08,0.0933 -4.48,0.28 -2.42666,0.37334 -4.01333,2.61334 -3.64,4.94667 v 0 c 0.28,1.77333 -0.56,3.54667 -2.14666,4.48 l -4.2,2.42667 c -1.58667,0.93333 -3.54667,0.74666 -4.85334,-0.37334 v 0 c -1.86666,-1.49333 -4.66666,-1.21333 -6.16,0.65334 -1.86666,2.33333 -3.36,4.94666 -4.48,7.84 -0.93333,2.24 0.18667,4.85333 2.52,5.69333 v 0 c 1.68,0.65334 2.8,2.24 2.8,4.01334 v 4.85333 c 0,1.77333 -1.12,3.45333 -2.8,4.01333 v 0 c -2.24,0.84 -3.36,3.45334 -2.52,5.69334 1.12,2.8 2.70667,5.41333 4.48,7.84 1.49334,1.86666 4.29334,2.24 6.16,0.65333 1.4,-1.12 3.36,-1.30667 4.85334,-0.37333 l 4.2,2.42666 c 1.58666,0.93334 2.42666,2.70667 2.14666,4.48 v 0 c -0.37333,2.42667 1.21334,4.66667 3.64,4.94667 1.49334,0.18667 2.98667,0.28 4.48,0.28 1.49334,0.0933 2.98667,0 4.48,-0.28 z m -22.02666,-32.01333 c 0,-9.61334 7.84,-17.45334 17.45333,-17.45334 9.61333,0 17.45334,7.84 17.45334,17.45334 0,9.61333 -7.84001,17.45333 -17.45334,17.45333 -9.61333,0 -17.45333,-7.84 -17.45333,-17.45333 z"
       style="fill:#40617c;stroke-width:0.933333" />
    <path
       d="m 427.70706,743.38722 a 7.8399254,7.8399254 0 0 1 0,11.08733 7.8399254,7.8399254 0 0 1 -11.08732,0 7.8399254,7.8399254 0 0 1 0,-11.08733 7.8399254,7.8399254 0 0 1 11.08732,0 z"
       style="fill:#82a6bf;stroke-width:0.933324" />
    <path
       d="m 337.49338,795.48002 c 3.45333,0 5.04,2.14667 5.04,5.6 v 11.29334 c 0,3.45333 -1.58667,5.50666 -5.04,5.50666 h -5.22667 v -22.4 z m 0,20.16 c 1.77333,0 2.61333,-1.12 2.61333,-3.17333 v -11.48 c 0,-2.05333 -0.84,-3.17333 -2.70666,-3.17333 h -2.70667 v 17.82666 z"
       style="fill:#2f546d;stroke-width:0.933333" />
    <path
       d="m 352.89338,805.37336 v 2.24 h -5.50667 v 7.93333 h 6.72001 v 2.24 h -9.24001 v -22.4 h 9.24001 v 2.24 h -6.72001 v 7.65333 h 5.50667 z"
       style="fill:#2f546d;stroke-width:0.933333" />
    <path
       d="m 358.30672,795.48002 3.64,19.50667 3.64,-19.50667 h 2.33333 l -4.2,22.4 h -3.64 l -4.2,-22.4 z"
       style="fill:#2f546d;stroke-width:0.933333" />
    <path
       d="m 377.81338,805.37336 v 2.24 h -5.50666 v 7.93333 h 6.72 v 2.24 h -9.24 v -22.4 h 9.24 v 2.24 h -6.72 v 7.65333 h 5.50666 z"
       style="fill:#2f546d;stroke-width:0.933333" />
    <path
       d="m 381.17338,800.89336 c 0,-3.45334 1.68,-5.6 5.13334,-5.6 3.45333,0 5.13333,2.24 5.13333,5.6 v 11.57333 c 0,3.36 -1.68,5.6 -5.13333,5.6 -3.45334,0 -5.13334,-2.24 -5.13334,-5.6 z m 2.42667,11.76 c 0,2.05333 0.84,3.26666 2.61333,3.26666 1.86667,0 2.61334,-1.21333 2.61334,-3.26666 v -11.85334 c 0,-2.05333 -0.84,-3.26666 -2.61334,-3.26666 -1.77333,0 -2.61333,1.21333 -2.61333,3.26666 z"
       style="fill:#2f546d;stroke-width:0.933333" />
    <path
       d="m 398.62672,795.48002 c 3.54667,0 5.04,2.05334 5.04,5.50667 v 2.70667 c 0,3.54666 -1.68,5.41333 -5.22667,5.41333 h -2.24 v 8.86667 h -2.52 v -22.4 h 4.94667 z m -0.18667,11.38667 c 1.86667,0 2.70667,-0.84 2.70667,-2.98667 v -3.08 c 0,-2.05333 -0.74667,-3.08 -2.52,-3.08 h -2.42667 v 9.05334 h 2.24 z"
       style="fill:#2f546d;stroke-width:0.933333" />
    <path
       d="m 414.02672,817.88002 h -2.42667 l -3.73333,-17.82666 v 17.82666 h -2.14667 v -22.4 h 3.45334 l 3.64,17.92 3.54666,-17.92 h 3.45334 v 22.4 h -2.33334 v -18.01333 z"
       style="fill:#2f546d;stroke-width:0.933333" />
    <path
       d="m 430.45339,805.37336 v 2.24 h -5.50667 v 7.93333 h 6.72 v 2.24 h -9.24 v -22.4 h 9.24 v 2.24 h -6.72 v 7.65333 h 5.50667 z"
       style="fill:#2f546d;stroke-width:0.933333"/>
    <path
       d="m 436.14672,817.88002 h -2.24 v -22.4 h 3.17334 l 5.22666,16.14667 v -16.14667 h 2.24 v 22.4 h -2.61333 l -5.69333,-18.10666 v 18.10666 z"
       style="fill:#2f546d;stroke-width:0.933333"/>
    <path
       d="m 450.33339,817.88002 v -20.06666 h -4.10667 v -2.24 h 10.73334 v 2.24 h -4.10667 v 20.06666 z"
       style="fill:#2f546d;stroke-width:0.933333"/>
    <path
       d="m 406.00004,839.25337 a 11.386668,11.386668 0 0 1 -11.38666,11.38667 11.386668,11.386668 0 0 1 -11.38667,-11.38667 11.386668,11.386668 0 0 1 11.38667,-11.38667 11.386668,11.386668 0 0 1 11.38666,11.38667 z"
       style="fill:#a8cde2;stroke-width:0.933333"/>
    <path
       d="M 557.0134,842.14669 H 394.61339 c -1.58667,0 -2.89334,-1.30666 -2.89334,-2.89333 0,-1.58667 1.30667,-2.89333 2.89334,-2.89333 H 554.12007 V 612.17334 c 0,-1.58667 1.30666,-2.89333 2.89333,-2.89333 1.58667,0 2.89333,1.30666 2.89333,2.89333 v 227.08002 c 0,1.58667 -1.30666,2.89333 -2.89333,2.89333 z"
       style="fill:#a8cde2;stroke-width:0.933333"/>
  </g>
  <g
     transform="matrix(1.690339,0,0,1.690339,-222.73747,-155.34499)">
    <path
       d="m 772.98675,804.90669 v 6.16 c 0,3.92 -3.17333,7.18667 -7.18667,7.18667 H 634.10674 c -3.92,0 -7.18667,-3.17334 -7.18667,-7.18667 v -5.32 c 0,-40.32 32.38667,-73.64001 72.80001,-73.82667 40.50667,-0.18667 73.26667,32.57333 73.26667,72.98667 z"
       style="fill:#40617c;stroke-width:0.933333"/>
    <path
       d="m 700.00008,758.42669 v 0 c -1.96,0 -3.64,-1.58667 -3.64,-3.64 v -12.22667 c 0,-1.96 1.58666,-3.64 3.64,-3.64 v 0 c 1.96,0 3.64,1.58667 3.64,3.64 v 12.22667 c 0,2.05333 -1.68,3.64 -3.64,3.64 z"
       style="fill:#ffffff;stroke-width:0.933333"/>
    <path
       d="m 732.85341,772.05335 v 0 c -1.4,-1.4 -1.4,-3.64 0,-5.13333 l 8.58667,-8.58667 c 1.4,-1.4 3.64,-1.4 5.13333,0 v 0 c 1.4,1.4 1.4,3.64 0,5.13334 l -8.58666,8.58666 c -1.49334,1.4 -3.73334,1.4 -5.13334,0 z"
       style="fill:#ffffff;stroke-width:0.933333"/>
    <path
       d="m 746.48008,804.90669 v 0 c 0,-1.96 1.58667,-3.64 3.64,-3.64 h 12.22667 c 1.96,0 3.64,1.58667 3.64,3.64 v 0 c 0,1.96 -1.58667,3.64 -3.64,3.64 h -12.22667 c -2.05333,0 -3.64,-1.68 -3.64,-3.64 z"
       style="fill:#ffffff;stroke-width:0.933333"/>
    <path
       d="m 634.10674,804.90669 v 0 c 0,-1.96 1.58667,-3.64 3.64,-3.64 h 12.22667 c 1.96,0 3.64,1.58667 3.64,3.64 v 0 c 0,1.96 -1.58667,3.64 -3.64,3.64 h -12.22667 c -1.96,0 -3.64,-1.68 -3.64,-3.64 z"
       style="fill:#ffffff;stroke-width:0.933333"/>
    <path
       d="m 653.42674,758.33335 v 0 c 1.4,-1.4 3.64,-1.4 5.13333,0 l 8.58667,8.58667 c 1.4,1.4 1.4,3.64 0,5.13333 v 0 c -1.4,1.4 -3.64,1.4 -5.13333,0 l -8.58667,-8.58666 c -1.4,-1.4 -1.4,-3.73334 0,-5.13334 z"
       style="fill:#ffffff;stroke-width:0.933333"/>
    <path
       d="m 700.00008,807.05336 c -0.28,0 -0.56,-0.0933 -0.74667,-0.18667 -1.12,-0.46667 -1.68,-1.68 -1.21333,-2.8 l 11.94666,-30.24 c 0.46667,-1.12 1.68,-1.68 2.8,-1.21334 1.12,0.46667 1.68,1.68 1.21334,2.8 l -11.94667,30.24001 c -0.37333,0.93333 -1.21333,1.4 -2.05333,1.4 z"
       style="fill:#ffffff;stroke-width:0.933333"/>
    <path
       d="m 708.77341,804.90671 a 8.7733341,8.7733341 0 0 1 -8.77333,8.77333 8.7733341,8.7733341 0 0 1 -8.77334,-8.77333 8.7733341,8.7733341 0 0 1 8.77334,-8.77333 8.7733341,8.7733341 0 0 1 8.77333,8.77333 z"
       style="fill:#82a6bf;stroke-width:0.933333"/>
    <path
       d="m 666.02674,855.21336 v -20.06667 h -4.10667 v -2.24 h 10.73334 v 2.24 h -4.10667 v 20.06667 z"
       style="fill:#2f546d;stroke-width:0.933333"/>
    <path
       d="m 682.36008,842.70669 v 2.24 h -5.50667 v 7.93334 h 6.72 v 2.24 h -9.24 v -22.4 h 9.24 v 2.24 h -6.72 v 7.65333 h 5.50667 z"
       style="fill:#2f546d;stroke-width:0.933333"/>
    <path
       d="m 695.61341,838.22669 v 0.65334 h -2.33333 v -0.74667 c 0,-2.05333 -0.74667,-3.17333 -2.52,-3.17333 -1.77334,0 -2.52,1.21333 -2.52,3.17333 0,5.04 7.56,5.50667 7.56,11.76 0,3.36 -1.58667,5.6 -5.04,5.6 -3.45334,0 -5.04,-2.24 -5.04,-5.6 v -1.30667 h 2.33333 v 1.4 c 0,2.05334 0.84,3.17334 2.61333,3.17334 1.77334,0 2.61334,-1.21334 2.61334,-3.17334 0,-4.94666 -7.46667,-5.50666 -7.46667,-11.76 0,-3.45333 1.58667,-5.6 4.94667,-5.6 3.26666,0 4.85333,2.24 4.85333,5.6 z"
       style="fill:#2f546d;stroke-width:0.933333"/>
    <path
       d="m 701.02674,855.21336 v -20.06667 h -4.10666 v -2.24 h 10.73333 v 2.24 h -4.10667 v 20.06667 z"
       style="fill:#2f546d;stroke-width:0.933333"/>
    <path
       d="m 711.85341,832.81336 v 22.4 h -2.52 v -22.4 z"
       style="fill:#2f546d;stroke-width:0.933333"/>
    <path
       d="m 716.70675,855.21336 h -2.24001 v -22.4 h 3.17334 l 5.22667,16.14667 v -16.14667 h 2.24 v 22.4 h -2.70667 l -5.69333,-18.10667 z"
       style="fill:#2f546d;stroke-width:0.933333"/>
    <path
       d="m 737.42675,838.22669 v 1.96 h -2.33334 v -2.05333 c 0,-2.05333 -0.84,-3.26667 -2.61333,-3.26667 -1.77333,0 -2.61333,1.21334 -2.61333,3.26667 v 11.85333 c 0,2.05334 0.84,3.26667 2.61333,3.26667 1.86667,0 2.61333,-1.21333 2.61333,-3.26667 v -4.48 h -2.33333 v -2.24 h 4.66667 v 6.62667 c 0,3.36 -1.58667,5.6 -5.04,5.6 -3.45334,0 -5.04,-2.24 -5.04,-5.6 v -11.57333 c 0,-3.36 1.58666,-5.6 5.04,-5.6 3.45333,-0.0933 5.04,2.14666 5.04,5.50666 z"
       style="fill:#2f546d;stroke-width:0.933333"/>
    <path
       d="m 711.38674,876.58671 a 11.386668,11.386668 0 0 1 -11.38666,11.38666 11.386668,11.386668 0 0 1 -11.38667,-11.38666 11.386668,11.386668 0 0 1 11.38667,-11.38667 11.386668,11.386668 0 0 1 11.38666,11.38667 z"
       style="fill:#a8cde2;stroke-width:0.933333"/>
    <path
       d="m 792.40008,879.48003 h -92.4 c -1.58667,0 -2.89334,-1.30667 -2.89334,-2.89333 0,-1.58667 1.30667,-2.89334 2.89334,-2.89334 h 89.50667 V 612.17334 c 0,-1.58667 1.30667,-2.89333 2.89333,-2.89333 1.58667,0 2.89334,1.30666 2.89334,2.89333 V 876.5867 c 0,1.58666 -1.30667,2.89333 -2.89334,2.89333 z"
       style="fill:#a8cde2;stroke-width:0.933333"/>
  </g>
  <g
     transform="matrix(1.690339,0,0,1.690339,-222.73747,-155.34499)">
    <path
       d="m 1052.2401,746.85335 9.1467,-46.2 -40.5067,-40.50667 -46.2,9.14667 c -4.66667,0.93333 -8.49333,4.48 -9.70667,9.14666 l -23.14667,88.29334 c -0.28,1.02667 0,2.14667 0.74667,2.89334 v 0 c 1.21333,1.21333 3.08,1.21333 4.29333,0 l 46.38667,-46.38667 c -2.05333,-4.2 -1.30666,-9.52 2.33334,-12.97334 4.2,-4.01333 11.01333,-4.01333 15.21333,0 4.5733,4.29334 4.6667,11.48 0.1867,15.96 -3.4534,3.45334 -8.5867,4.10667 -12.7867,2.05334 l -46.38667,46.38667 c -1.21333,1.21333 -1.21333,3.08 0,4.29333 v 0 c 0.74667,0.74667 1.86667,1.02667 2.89333,0.74667 l 88.29334,-23.14667 c 4.76,-1.21333 8.3067,-4.94667 9.24,-9.70667 z"
       style="fill:#82a6bf;stroke-width:0.933333"/>
    <path
       d="m 1062.1334,711.20002 -51.8,-51.80001 c -2.4266,-2.42666 -2.4266,-6.44 0,-8.86667 l 12.04,-12.04 c 2.4267,-2.42666 6.44,-2.42666 8.8667,0 l 51.8,51.80001 c 2.4267,2.42666 2.4267,6.44 0,8.86667 l -12.04,12.04 c -2.4267,2.52 -6.44,2.52 -8.8667,0 z"
       style="fill:#40617c;stroke-width:0.933333"/>
    <path
       d="m 986.62677,794.08002 c 3.45333,0 5.04,2.14667 5.04,5.6 v 11.29334 c 0,3.45333 -1.58667,5.50666 -5.04,5.50666 h -5.22667 v -22.4 z m -0.0933,20.16 c 1.77334,0 2.61334,-1.12 2.61334,-3.17333 v -11.48 c 0,-2.05333 -0.84,-3.17333 -2.70667,-3.17333 h -2.70667 v 17.82666 z"
       style="fill:#2f546d;stroke-width:0.933333"/>
    <path
       d="m 1002.0268,804.06669 v 2.24 h -5.5067 v 7.93333 h 6.72 v 2.24 h -9.24 v -22.4 h 9.24 v 2.24 h -6.72 v 7.65334 h 5.5067 z"
       style="fill:#2f546d;stroke-width:0.933333"/>
    <path
       d="m 1015.1868,799.49336 v 0.65333 h -2.3334 v -0.74667 c 0,-2.05333 -0.7466,-3.17333 -2.52,-3.17333 -1.7733,0 -2.52,1.21333 -2.52,3.17333 0,5.04 7.56,5.50667 7.56,11.76 0,3.36 -1.5866,5.6 -5.04,5.6 -3.4533,0 -5.04,-2.24 -5.04,-5.6 v -1.30666 h 2.3334 v 1.4 c 0,2.05333 0.84,3.17333 2.6133,3.17333 1.7733,0 2.6133,-1.21333 2.6133,-3.17333 0,-4.94667 -7.4666,-5.50667 -7.4666,-11.76 0,-3.45334 1.5866,-5.6 4.9466,-5.6 3.2667,0 4.8534,2.24 4.8534,5.6 z"
       style="fill:#2f546d;stroke-width:0.933333"/>
    <path
       d="m 1019.9468,794.08002 v 22.4 h -2.52 v -22.4 z"
       style="fill:#2f546d;stroke-width:0.933333"/>
    <path
       d="m 1032.3601,799.49336 v 1.96 h -2.3333 v -2.05334 c 0,-2.05333 -0.84,-3.26666 -2.6134,-3.26666 -1.7733,0 -2.6133,1.21333 -2.6133,3.26666 v 11.85334 c 0,2.05333 0.84,3.26666 2.6133,3.26666 1.8667,0 2.6134,-1.21333 2.6134,-3.26666 v -4.48 h -2.3334 v -2.24 h 4.6667 v 6.62666 c 0,3.36 -1.5867,5.6 -5.04,5.6 -3.4533,0 -5.04,-2.24 -5.04,-5.6 v -11.57333 c 0,-3.36 1.5867,-5.6 5.04,-5.6 3.4533,-0.0933 5.04,2.14667 5.04,5.50667 z"
       style="fill:#2f546d;stroke-width:0.933333"/>
    <path
       d="m 1036.9334,816.48002 h -2.24 v -22.4 h 3.1734 l 5.1333,16.14667 v -16.14667 h 2.24 v 22.4 h -2.6133 l -5.6934,-18.10666 z"
       style="fill:#2f546d;stroke-width:0.933333"/>
    <path
       d="m 1024.7068,837.85337 a 11.386668,11.386668 0 0 1 -11.3867,11.38667 11.386668,11.386668 0 0 1 -11.3867,-11.38667 11.386668,11.386668 0 0 1 11.3867,-11.38667 11.386668,11.386668 0 0 1 11.3867,11.38667 z"
       style="fill:#a8cde2;stroke-width:0.933333"/>
    <path
       d="M 1013.3201,840.74669 H 846.25342 c -1.58666,0 -2.89333,-1.30666 -2.89333,-2.89333 V 612.17334 c 0,-1.58667 1.30667,-2.89333 2.89333,-2.89333 1.58667,0 2.89334,1.30666 2.89334,2.89333 v 222.78669 h 164.17334 c 1.5867,0 2.8933,1.30666 2.8933,2.89333 0,1.58667 -1.3066,2.89333 -2.8933,2.89333 z"
       style="fill:#a8cde2;stroke-width:0.933333"/>
  </g>
  <g
     transform="matrix(1.690339,0,0,1.690339,-222.73747,-155.34499)">
    <path
       d="m 1244.9735,418.97332 -13.9067,1.58668 -4.1067,7.56 -8.7733,-1.68002 -17.8267,16.52002 2.0534,8.21332 -7.9334,5.41335 -5.88,-4.57335 -16.0533,10.26667 -0.56,10.36 -9.8,1.12002 -2.1467,-11.66667 -16.3333,-10.92002 -6.2534,3.26667 v 71.8667 h 114.8934 V 425.03998 Z"
       style="fill:#82a6bf;stroke-width:0.933333"/>
    <path
       d="m 1261.8668,532.37333 h -133.84 c -3.36,0 -6.0667,-2.70666 -6.0667,-6.06666 v 0 c 0,-3.36 2.7067,-6.06667 6.0667,-6.06667 h 133.84 c 3.36,0 6.0667,2.70667 6.0667,6.06667 v 0 c 0,3.36 -2.7067,6.06666 -6.0667,6.06666 z"
       style="fill:#40617c;stroke-width:0.933333"/>
    <path
       d="m 1137.4534,457.33333 c -5.6933,0 -10.36,-4.66667 -10.36,-10.36 0,-5.69334 4.6667,-10.36 10.36,-10.36 5.6934,0 10.36,4.66666 10.36,10.36 0,5.69333 -4.6666,10.36 -10.36,10.36 z m 0,-14.93334 c -2.52,0 -4.5733,2.05334 -4.5733,4.57334 0,2.52 2.0533,4.57333 4.5733,4.57333 2.52,0 4.5734,-2.05333 4.5734,-4.57333 0.093,-2.52 -2.0534,-4.57334 -4.5734,-4.57334 z"
       style="fill:#40617c;stroke-width:0.933333"/>
    <path
       d="m 1166.2001,476.65333 c -5.6933,0 -10.36,-4.66667 -10.36,-10.36 0,-5.69333 4.6667,-10.36 10.36,-10.36 5.6933,0 10.36,4.66667 10.36,10.36 0,5.69333 -4.6667,10.36 -10.36,10.36 z m 0,-14.93333 c -2.52,0 -4.5733,2.05333 -4.5733,4.57333 0,2.52 2.0533,4.57333 4.5733,4.57333 2.52,0 4.5733,-2.05333 4.5733,-4.57333 0,-2.52 -2.0533,-4.57333 -4.5733,-4.57333 z"
       style="fill:#40617c;stroke-width:0.933333"/>
    <path
       d="m 1194.9468,458.36 c -5.6933,0 -10.36,-4.66667 -10.36,-10.36001 0,-5.69333 4.6667,-10.36 10.36,-10.36 5.6933,0 10.36,4.66667 10.36,10.36 0,5.69334 -4.6667,10.36001 -10.36,10.36001 z m 0,-14.93334 c -2.52,0 -4.5733,2.05333 -4.5733,4.57333 0,2.52 2.0533,4.57334 4.5733,4.57334 2.52,0 4.5733,-2.05334 4.5733,-4.57334 0,-2.52 -2.0533,-4.57333 -4.5733,-4.57333 z"
       style="fill:#40617c;stroke-width:0.933333"/>
    <path
       d="m 1223.6935,431.75999 c -5.6934,0 -10.36,-4.66666 -10.36,-10.36 0,-5.69333 4.6666,-10.36 10.36,-10.36 5.6933,0 10.36,4.66667 10.36,10.36 0,5.69334 -4.6667,10.36 -10.36,10.36 z m 0,-14.93333 c -2.52,0 -4.5734,2.05333 -4.5734,4.57333 0,2.52 2.0534,4.57334 4.5734,4.57334 2.52,0 4.5733,-2.05334 4.5733,-4.57334 0,-2.52 -2.0533,-4.57333 -4.5733,-4.57333 z"
       style="fill:#40617c;stroke-width:0.933333"/>
    <path
       d="m 1252.3468,428.39999 c -5.6933,0 -10.36,-4.66666 -10.36,-10.36 0,-5.69333 4.6667,-10.36 10.36,-10.36 5.6933,0 10.36,4.66667 10.36,10.36 0,5.69334 -4.6667,10.36 -10.36,10.36 z m 0,-14.93333 c -2.52,0 -4.5733,2.05333 -4.5733,4.57333 0,2.52 2.0533,4.57334 4.5733,4.57334 2.52,0 4.5733,-2.05334 4.5733,-4.57334 0.093,-2.52 -1.96,-4.57333 -4.5733,-4.57333 z"
       style="fill:#40617c;stroke-width:0.933333"/>
    <path
       d="m 1136.0534,454.43999 h 2.8934 v 71.86667 h -2.8934 z"
       style="fill:#40617c;stroke-width:0.933333"/>
    <path
       d="m 1250.9468,425.03998 h 2.8933 v 101.26668 h -2.8933 z"
       style="fill:#40617c;stroke-width:0.933333"/>
    <path
       d="m 1230.9375,419.18396 13.9076,-1.6058 0.3318,2.87424 -13.9076,1.6058 z"
       style="fill:#40617c;stroke-width:0.933333"/>
    <path
       d="m 1199.3788,441.89203 17.7408,-16.41853 1.9652,2.12342 -17.7409,16.41853 z"
       style="fill:#40617c;stroke-width:0.933297"/>
    <path
       d="m 1171.6924,461.13507 16.139,-10.27652 1.554,2.44053 -16.139,10.27651 z"
       style="fill:#40617c;stroke-width:0.933319"/>
    <path
       d="m 1142.9142,452.35979 1.6151,-2.4006 16.3395,10.99282 -1.615,2.4006 z"
       style="fill:#40617c;stroke-width:0.933328"/>
    <path
       d="m 1156.0268,564.76 -0.84,4.48 h -2.3334 l 4.2934,-22.4 h 3.64 l 4.2933,22.4 h -2.52 l -0.84,-4.48 z m 0.28,-2.14666 h 4.9466 l -2.52,-12.88 z"
       style="fill:#2f546d;stroke-width:0.933333"/>
    <path
       d="m 1169.1868,569.24 h -2.24 v -22.4 h 3.1733 l 5.2267,16.14667 V 546.84 h 2.24 v 22.4 h -2.6134 l -5.6933,-18.10666 V 569.24 Z"
       style="fill:#2f546d;stroke-width:0.933333"/>
    <path
       d="m 1182.5334,564.76 -0.84,4.48 h -2.3333 l 4.2934,-22.4 h 3.64 l 4.2933,22.4 h -2.52 l -0.84,-4.48 z m 0.3734,-2.14666 h 4.9467 l -2.52,-12.88 z"
       style="fill:#2f546d;stroke-width:0.933333"/>
    <path
       d="m 1193.5468,569.24 v -22.4 h 2.52 v 20.06667 h 6.44 v 2.24 h -8.96 z"
       style="fill:#2f546d;stroke-width:0.933333"/>
    <path
       d="m 1206.3335,561.21334 -4.76,-14.37334 h 2.6133 l 3.4533,11.01334 3.5467,-11.01334 h 2.3333 l -4.76,14.37334 V 569.24 h -2.4266 z"
       style="fill:#2f546d;stroke-width:0.933333"/>
    <path
       d="m 1225.0935,569.24 h -10.1734 V 567 l 7.6534,-17.92 h -7.28 v -2.24 h 9.8933 v 2.24 l -7.7467,17.92 h 7.6534 z"
       style="fill:#2f546d;stroke-width:0.933333"/>
    <path
       d="m 1235.3601,556.73334 v 2.24 h -5.5066 v 7.93333 h 6.72 v 2.24 h -9.24 v -22.4 h 9.24 v 2.24 h -6.72 V 556.64 h 5.5066 z"
       style="fill:#2f546d;stroke-width:0.933333"/>
    <path
       d="M 1206.3335,590.61333 A 11.386668,11.386668 0 0 1 1194.9468,602 a 11.386668,11.386668 0 0 1 -11.3867,-11.38667 11.386668,11.386668 0 0 1 11.3867,-11.38667 11.386668,11.386668 0 0 1 11.3867,11.38667 z"
       style="fill:#a8cde2;stroke-width:0.933333"/>
    <path
       d="M 1194.9468,593.50667 H 917.28009 c -1.58666,0 -2.89333,-1.30666 -2.89333,-2.89333 0,-1.58667 1.30667,-2.89333 2.89333,-2.89333 h 277.66671 c 1.5867,0 2.8933,1.30666 2.8933,2.89333 0,1.58667 -1.3066,2.89333 -2.8933,2.89333 z"
       style="fill:#a8cde2;stroke-width:0.933333"/>
  </g>
  <g
     transform="matrix(1.690339,0,0,1.690339,-222.73747,-155.34499)">
    <path
       d="m 993.4401,155.67997 v 28 h 3.54667 v -28 c 4.29333,-0.84 7.46663,-4.57333 7.46663,-9.05333 0,-5.13334 -4.1066,-9.24 -9.23997,-9.24 -5.13333,0 -9.24,4.10666 -9.24,9.24 0,4.48 3.17334,8.21333 7.46667,9.05333 z m 1.77333,-14.74667 c 3.17334,0 5.69337,2.52 5.69337,5.69334 0,3.17333 -2.52003,5.69333 -5.69337,5.69333 -3.17333,0 -5.69333,-2.52 -5.69333,-5.69333 0,-3.17334 2.52,-5.69334 5.69333,-5.69334 z"
       style="fill:#82a6bf;stroke-width:0.933333" />
    <path
       d="m 976.0801,183.77331 h 3.54667 v -18.01334 c 0,-1.02667 -0.84,-1.77333 -1.77334,-1.77333 h -12.04 c -0.84,-4.29334 -4.57333,-7.46667 -9.05333,-7.46667 -5.13334,0 -9.24,4.10667 -9.24,9.24 0,5.13334 4.10666,9.24 9.24,9.24 4.48,0 8.21333,-3.17333 9.05333,-7.46667 h 10.26667 z m -19.32,-12.41334 c -3.17334,0 -5.69334,-2.52 -5.69334,-5.69333 0,-3.17334 2.52,-5.69334 5.69334,-5.69334 3.17333,0 5.69333,2.52 5.69333,5.69334 -0.0933,3.17333 -2.61333,5.69333 -5.69333,5.69333 z"
       style="fill:#82a6bf;stroke-width:0.933333" />
    <path
       d="m 1033.6668,156.42664 c -4.48,0 -8.2134,3.17333 -9.0534,7.46666 h -12.04 c -1.0266,0 -1.7733,0.84 -1.7733,1.77334 v 18.01333 h 3.5467 v -16.24 h 10.2666 c 0.84,4.29334 4.5734,7.46667 9.0534,7.46667 5.1333,0 9.24,-4.10667 9.24,-9.24 0,-5.04 -4.1067,-9.24 -9.24,-9.24 z m 0,14.93333 c -3.1734,0 -5.6934,-2.52 -5.6934,-5.69333 0,-3.17334 2.52,-5.69334 5.6934,-5.69334 3.1733,0 5.6933,2.52 5.6933,5.69334 0,3.17333 -2.6133,5.69333 -5.6933,5.69333 z"
       style="fill:#82a6bf;stroke-width:0.933333" />
    <path
       d="m 984.4801,260.49332 h 21.3733 v 20.25334 h -21.3733 z"
       style="fill:#82a6bf;stroke-width:0.933333" />
    <path
       d="M 1057.4668,268.51998 H 932.9601 c -5.97334,0 -10.73334,-4.85333 -10.73334,-10.73333 v -65.98668 c 0,-5.97333 4.85334,-10.73333 10.73334,-10.73333 h 124.5067 c 5.9733,0 10.7333,4.85333 10.7333,10.73333 v 65.98668 c 0,5.97333 -4.8533,10.73333 -10.7333,10.73333 z"
       style="fill:#40617c;stroke-width:0.933333" />
    <path
       d="m 1061.0134,243.87998 v -51.98667 c 0,-1.96 -1.5866,-3.54667 -3.5466,-3.54667 H 932.9601 c -1.96,0 -3.54667,1.58667 -3.54667,3.54667 v 51.98667 c 0,1.96 1.58667,3.54666 3.54667,3.54666 h 124.5067 c 1.96,0 3.5466,-1.58666 3.5466,-3.54666 z"
       style="fill:#ffffff;stroke-width:0.933333" />
    <path
       d="m 1014.6268,283.35998 h -38.92003 c -1.4,0 -2.52,-1.12 -2.52,-2.52 v 0 c 0,-1.4 1.12,-2.52 2.52,-2.52 h 38.92003 c 1.4,0 2.52,1.12 2.52,2.52 v 0 c 0.093,1.4 -1.0267,2.52 -2.52,2.52 z"
       style="fill:#40617c;stroke-width:0.933333" />
    <path
       d="m 917.28009,297.63998 v 22.4 h -2.52 v -22.4 z"
       style="fill:#2f546d;stroke-width:0.933333" />
    <path
       d="m 928.10676,319.94665 h -2.42666 l -3.73334,-17.82667 v 17.82667 h -2.14666 v -22.4 h 3.45333 l 3.64,17.92 3.54667,-17.92 h 3.45333 v 22.4 h -2.33333 v -18.01333 z"
       style="fill:#2f546d;stroke-width:0.933333" />
    <path
       d="m 941.45343,297.63998 c 3.54667,0 5.04,2.05334 5.04,5.50667 v 2.70667 c 0,3.54666 -1.68,5.41333 -5.22667,5.41333 h -2.24 v 8.86667 h -2.52 v -22.4 h 4.94667 z m -0.18667,11.29334 c 1.86667,0 2.70667,-0.84 2.70667,-2.98667 v -2.98667 c 0,-2.05333 -0.74667,-3.08 -2.52,-3.08 h -2.42667 v 9.05334 z"
       style="fill:#2f546d;stroke-width:0.933333" />
    <path
       d="m 948.54676,319.94665 v -22.4 h 2.52 v 20.06667 h 6.44 v 2.24 h -8.96 z"
       style="fill:#2f546d;stroke-width:0.933333" />
    <path
       d="m 967.21343,307.53332 v 2.24 h -5.50666 v 7.93333 h 6.72 v 2.24 h -9.24001 v -22.4 h 9.24001 v 2.24 h -6.72 v 7.65333 h 5.50666 z"
       style="fill:#2f546d;stroke-width:0.933333" />
    <path
       d="m 979.06677,319.94665 h -2.42667 l -3.73333,-17.82667 v 17.82667 h -2.14667 v -22.4 h 3.45333 l 3.64,17.92 3.54667,-17.92 h 3.45333 v 22.4 h -2.33333 v -18.01333 z"
       style="fill:#2f546d;stroke-width:0.933333" />
    <path
       d="m 995.49343,307.53332 v 2.24 h -5.50666 v 7.93333 h 6.72 v 2.24 h -9.24 v -22.4 h 9.24 v 2.24 h -6.72 v 7.65333 h 5.50666 z"
       style="fill:#2f546d;stroke-width:0.933333" />
    <path
       d="m 1001.2801,319.94665 h -2.24 v -22.4 h 3.1733 l 5.2267,16.14667 v -16.14667 h 2.24 v 22.4 h -2.6133 l -5.6934,-18.10667 v 18.10667 z"
       style="fill:#2f546d;stroke-width:0.933333" />
    <path
       d="m 1015.3734,319.94665 v -20.06667 h -4.1066 v -2.24 h 10.7333 v 2.24 h -4.1067 v 20.06667 z"
       style="fill:#2f546d;stroke-width:0.933333" />
    <path
       d="m 1024.9868,315.46665 -0.84,4.48 h -2.3334 l 4.2934,-22.4 h 3.64 l 4.2933,22.4 h -2.52 l -0.84,-4.48 z m 0.3733,-2.14667 h 4.9467 l -2.52,-12.88 z"
       style="fill:#2f546d;stroke-width:0.933333" />
    <path
       d="m 1039.2668,319.94665 v -20.06667 h -4.1067 v -2.24 h 10.7333 v 2.24 h -4.1066 v 20.06667 z"
       style="fill:#2f546d;stroke-width:0.933333" />
    <path
       d="m 1050.0934,297.63998 v 22.4 h -2.52 v -22.4 z"
       style="fill:#2f546d;stroke-width:0.933333" />
    <path
       d="m 1052.4268,303.05332 c 0,-3.45334 1.68,-5.6 5.1333,-5.6 3.4533,0 5.1333,2.24 5.1333,5.6 v 11.57333 c 0,3.36 -1.68,5.6 -5.1333,5.6 -3.4533,0 -5.1333,-2.24 -5.1333,-5.6 z m 2.52,11.66666 c 0,2.05334 0.84,3.26667 2.6133,3.26667 1.8667,0 2.6133,-1.21333 2.6133,-3.26667 v -11.85333 c 0,-2.05333 -0.84,-3.26667 -2.6133,-3.26667 -1.7733,0 -2.6133,1.21334 -2.6133,3.26667 z"
       style="fill:#2f546d;stroke-width:0.933333" />
    <path
       d="m 1067.2668,319.94665 h -2.24 v -22.4 h 3.1733 l 5.2267,16.14667 v -16.14667 h 2.24 v 22.4 h -2.6134 l -5.6933,-18.10667 v 18.10667 z"
       style="fill:#2f546d;stroke-width:0.933333" />
    <path
       d="m 1006.6001,341.59999 a 11.386668,11.386668 0 0 1 -11.38667,11.38666 11.386668,11.386668 0 0 1 -11.38666,-11.38666 11.386668,11.386668 0 0 1 11.38666,-11.38667 11.386668,11.386668 0 0 1 11.38667,11.38667 z"
       style="fill:#a8cde2;stroke-width:0.933333" />
    <path
       d="M 995.21343,458.92 H 880.22676 c -1.58667,0 -2.89334,-1.30667 -2.89334,-2.89334 0,-1.58666 1.30667,-2.89333 2.89334,-2.89333 H 992.3201 V 341.59999 c 0,-1.58667 1.30667,-2.89334 2.89333,-2.89334 1.58667,0 2.89334,1.30667 2.89334,2.89334 v 114.42667 c 0,1.58667 -1.30667,2.89334 -2.89334,2.89334 z"
       style="fill:#a8cde2;stroke-width:0.933333" />
  </g>
</svg>
